<svg preserveAspectRatio="none" width="100%" height="100%" overflow="visible" style="display: block;" viewBox="0 0 119.314 14.0255" fill="none" xmlns="http://www.w3.org/2000/svg">
<g id="Group">
<path id="Vector" d="M2.78047 0.24362V13.8863H0V0.24362H2.78047Z" fill="var(--fill-0, #ECEFE5)"/>
<path id="Vector_2" d="M17.2811 13.8863H14.5007L8.23581 4.52436V13.8863H5.45535V0.208818H8.23581L14.5007 9.60557V0.208818H17.2811V13.8863Z" fill="var(--fill-0, #ECEFE5)"/>
<path id="Vector_3" d="M31.817 13.8863H29.0365L22.7717 4.52436V13.8863H19.9912V0.208818H22.7717L29.0365 9.60557V0.208818H31.817V13.8863Z" fill="var(--fill-0, #ECEFE5)"/>
<path id="Vector_4" d="M37.3779 13.1206C36.2868 12.529 35.4421 11.6937 34.8086 10.6148C34.1751 9.53596 33.8583 8.35267 33.8583 6.99536C33.8583 5.63805 34.1751 4.45476 34.8086 3.41067C35.4421 2.33179 36.2868 1.53132 37.3779 0.904873C38.469 0.278423 39.6304 1.12355e-06 40.9327 1.12355e-06C42.2349 1.12355e-06 43.4316 0.313225 44.4875 0.904873C45.5433 1.49652 46.4232 2.33179 47.0216 3.41067C47.6551 4.48956 47.9718 5.67285 47.9718 6.99536C47.9718 8.31787 47.6551 9.53596 47.0216 10.6148C46.388 11.6937 45.5433 12.4942 44.4523 13.1206C43.3612 13.7123 42.1997 14.0255 40.8975 14.0255C39.5952 14.0255 38.4338 13.7123 37.3427 13.1206H37.3779ZM43.15 11.0325C43.7835 10.6497 44.2763 10.1276 44.6282 9.43156C44.9802 8.7355 45.1562 7.93504 45.1562 7.03016C45.1562 6.12529 44.9802 5.32483 44.6282 4.62877C44.2763 3.93272 43.7835 3.41067 43.15 3.06264C42.5165 2.71462 41.7774 2.5058 40.9679 2.5058C40.1584 2.5058 39.4193 2.67981 38.7506 3.06264C38.117 3.41067 37.6243 3.96752 37.2723 4.62877C36.9204 5.32483 36.7444 6.12529 36.7444 7.03016C36.7444 7.93504 36.9204 8.7355 37.2723 9.43156C37.6243 10.1276 38.117 10.6497 38.7506 11.0325C39.3841 11.4153 40.1232 11.5893 40.9679 11.5893C41.8126 11.5893 42.5165 11.4153 43.15 11.0325Z" fill="var(--fill-0, #ECEFE5)"/>
<path id="Vector_5" d="M62.4373 0.24362L57.3691 13.8863H54.0255L48.9573 0.24362H51.9138L55.7149 11.1021L59.4809 0.24362H62.4373Z" fill="var(--fill-0, #ECEFE5)"/>
<path id="Vector_6" d="M70.3212 11.3109H64.8306L63.9155 13.9211H60.9943L65.9569 0.24362H69.1949L74.1575 13.9211H71.2363L70.3212 11.3109ZM69.5469 9.11833L67.5407 3.41067L65.5345 9.11833H69.5117H69.5469Z" fill="var(--fill-0, #ECEFE5)"/>
<path id="Vector_7" d="M84.5051 0.24362V2.4362H80.8447V13.8863H78.0642V2.4362H74.4039V0.24362H84.5403H84.5051Z" fill="var(--fill-0, #ECEFE5)"/>
<path id="Vector_8" d="M89.2917 0.24362V13.8863H86.5112V0.24362H89.2917Z" fill="var(--fill-0, #ECEFE5)"/>
<path id="Vector_9" d="M94.8526 13.1206C93.7615 12.529 92.9169 11.6937 92.2833 10.6148C91.6498 9.53596 91.333 8.35267 91.333 6.99536C91.333 5.63805 91.6498 4.45476 92.2833 3.41067C92.9169 2.33179 93.7615 1.53132 94.8526 0.904873C95.9437 0.313225 97.1052 1.12355e-06 98.4074 1.12355e-06C99.7096 1.12355e-06 100.906 0.313225 101.962 0.904873C103.053 1.49652 103.898 2.33179 104.496 3.41067C105.13 4.48956 105.447 5.67285 105.447 6.99536C105.447 8.31787 105.13 9.53596 104.496 10.6148C103.863 11.6937 103.018 12.4942 101.927 13.1206C100.836 13.7471 99.6744 14.0255 98.3722 14.0255C97.07 14.0255 95.9085 13.7123 94.8174 13.1206H94.8526ZM100.625 11.0325C101.258 10.6497 101.751 10.1276 102.103 9.43156C102.455 8.7355 102.631 7.93504 102.631 7.03016C102.631 6.12529 102.455 5.32483 102.103 4.62877C101.751 3.93272 101.258 3.41067 100.625 3.06264C99.9912 2.71462 99.2521 2.5058 98.4426 2.5058C97.6331 2.5058 96.894 2.67981 96.2253 3.06264C95.5917 3.41067 95.099 3.96752 94.747 4.62877C94.3951 5.32483 94.2191 6.12529 94.2191 7.03016C94.2191 7.93504 94.3951 8.7355 94.747 9.43156C95.099 10.1276 95.5917 10.6497 96.2253 11.0325C96.8588 11.4153 97.5979 11.5893 98.4426 11.5893C99.2873 11.5893 99.9912 11.4153 100.625 11.0325Z" fill="var(--fill-0, #ECEFE5)"/>
<path id="Vector_10" d="M119.314 13.8863H116.533L110.268 4.52436V13.8863H107.488V0.208818H110.268L116.533 9.60557V0.208818H119.314V13.8863Z" fill="var(--fill-0, #ECEFE5)"/>
</g>
</svg>
