<svg preserveAspectRatio="none" width="100%" height="100%" overflow="visible" style="display: block;" viewBox="0 0 53.8143 13.9559" fill="none" xmlns="http://www.w3.org/2000/svg">
<g id="Group">
<path id="Vector" d="M2.5341 13.5035C1.75979 13.1903 1.16146 12.703 0.703916 12.1114C0.24637 11.4849 0.0351958 10.7889 0 9.9536H2.95645C2.99164 10.5104 3.20282 10.9629 3.55477 11.2761C3.90673 11.5893 4.39947 11.7633 5.033 11.7633C5.66652 11.7633 6.19446 11.6241 6.54642 11.3109C6.89837 10.9977 7.10955 10.6148 7.10955 10.0928C7.10955 9.67517 6.96876 9.36195 6.72239 9.08353C6.47602 8.83991 6.15926 8.63109 5.77211 8.45708C5.38495 8.31787 4.89221 8.14385 4.22349 7.96984C3.3436 7.72622 2.60449 7.4478 2.04136 7.20418C1.47822 6.96056 0.985482 6.57773 0.598328 6.05568C0.24637 5.53364 0.0351958 4.87239 0.0351958 4.00232C0.0351958 3.20186 0.24637 2.5058 0.66872 1.87935C1.09107 1.2877 1.6542 0.835267 2.39331 0.487239C3.13242 0.174014 3.97712 0 4.92741 0C6.33524 0 7.4967 0.348028 8.41179 1.00928C9.32688 1.67053 9.78443 2.64501 9.89001 3.86311H6.86318C6.86318 3.41067 6.652 2.99304 6.26485 2.71462C5.8777 2.40139 5.38495 2.26218 4.78663 2.26218C4.25869 2.26218 3.80114 2.40139 3.48438 2.67981C3.16762 2.95824 2.99164 3.34107 2.99164 3.86311C2.99164 4.21114 3.09723 4.52436 3.3436 4.76798C3.58997 5.0116 3.90673 5.22042 4.25869 5.35963C4.61065 5.49884 5.13858 5.67285 5.8073 5.88167C6.6872 6.12529 7.42631 6.40371 7.98944 6.64733C8.55257 6.89095 9.04532 7.30858 9.46766 7.83063C9.89001 8.35267 10.066 9.04872 10.066 9.88399C10.066 10.6148 9.89001 11.2761 9.50286 11.9026C9.11571 12.529 8.55257 13.0162 7.81346 13.3991C7.07435 13.7819 6.19446 13.9559 5.17378 13.9559C4.22349 13.9559 3.3436 13.7819 2.56929 13.4687L2.5341 13.5035Z" fill="var(--fill-0, #ECEFE5)"/>
<path id="Vector_2" d="M15.1694 2.43619V5.84687H19.8152V8.00464H15.1694V11.6241H20.4136V13.8515H12.4241V0.208817H20.4136V2.43619H15.1694Z" fill="var(--fill-0, #ECEFE5)"/>
<path id="Vector_3" d="M25.6577 0.243619V13.8863H22.8773V0.243619H25.6577Z" fill="var(--fill-0, #ECEFE5)"/>
<path id="Vector_4" d="M36.1813 13.8863L31.1483 7.79582V13.8863H28.3678V0.243619H31.1483V6.36891L36.1813 0.243619H39.5249L33.8231 6.99536L39.6656 13.8863H36.1813Z" fill="var(--fill-0, #ECEFE5)"/>
<path id="Vector_5" d="M49.978 11.2761H44.4875L43.5724 13.8863H40.6511L45.6137 0.208817H48.8517L53.8143 13.8863H50.8931L49.978 11.2761ZM49.2037 9.08353L47.1975 3.37587L45.1914 9.08353H49.1685H49.2037Z" fill="var(--fill-0, #ECEFE5)"/>
</g>
</svg>
