<svg preserveAspectRatio="none" width="100%" height="100%" overflow="visible" style="display: block;" viewBox="0 0 14.2191 14.0603" fill="none" xmlns="http://www.w3.org/2000/svg">
<g id="Group">
<path id="Vector" d="M10.5235 8.7355C10.242 9.25754 9.85481 9.74478 9.32687 10.0928H4.82182C4.32908 9.74478 3.90673 9.25754 3.62516 8.7355H7.03914L3.66035 5.29002C3.87153 4.87239 4.1531 4.48956 4.50506 4.21114L6.68719 6.43852L9.60845 4.21114C9.96041 4.52436 10.242 4.87239 10.4531 5.29002L7.63748 7.41299L8.93972 8.7355H10.4531H10.5235Z" fill="var(--fill-0, #ECEFE5)"/>
<path id="Vector_2" d="M7.10955 14.0603C3.20282 14.0603 0 10.8933 0 7.03016C0 3.16705 3.20282 0 7.10955 0C11.0163 0 14.2191 3.16705 14.2191 7.03016C14.2191 10.8933 11.0163 14.0603 7.10955 14.0603ZM7.10955 1.49652C4.01232 1.49652 1.51342 3.96752 1.51342 7.03016C1.51342 10.0928 4.01232 12.5638 7.10955 12.5638C10.2068 12.5638 12.7057 10.0928 12.7057 7.03016C12.7057 3.96752 10.2068 1.49652 7.10955 1.49652Z" fill="var(--fill-0, #00A77D)"/>
</g>
</svg>
