<svg preserveAspectRatio="none" width="100%" height="100%" overflow="visible" style="display: block;" viewBox="0 0 462.229 330.463" fill="none" xmlns="http://www.w3.org/2000/svg">
<g id="Freccia 2">
<path id="Vector" d="M456.798 323.134C456.646 321.542 456.469 319.925 456.292 318.333L457.581 318.181C457.758 319.773 457.935 321.39 458.087 323.008L456.798 323.134ZM455.686 313.531C455.484 311.939 455.256 310.347 455.029 308.755L456.318 308.578C456.545 310.17 456.773 311.762 456.975 313.38L455.686 313.557V313.531ZM454.296 304.004C454.043 302.412 453.765 300.82 453.487 299.253L454.751 299.026C455.029 300.618 455.307 302.21 455.585 303.802L454.321 304.004H454.296ZM452.578 294.503C452.274 292.911 451.946 291.344 451.617 289.777L452.881 289.499C453.209 291.066 453.538 292.658 453.867 294.25L452.603 294.503H452.578ZM450.556 285.077C450.202 283.51 449.823 281.943 449.419 280.376L450.682 280.073C451.061 281.64 451.441 283.207 451.82 284.773L450.556 285.077ZM448.231 275.701C447.827 274.135 447.397 272.593 446.942 271.052L448.181 270.698C448.61 272.239 449.04 273.806 449.469 275.373L448.231 275.701ZM445.603 266.402C445.148 264.86 444.668 263.319 444.188 261.803L445.426 261.424C445.906 262.965 446.386 264.506 446.867 266.048L445.628 266.427L445.603 266.402ZM442.672 257.203C442.166 255.687 441.636 254.146 441.105 252.629L442.318 252.2C442.849 253.716 443.379 255.257 443.885 256.774L442.672 257.178V257.203ZM439.462 248.106C438.906 246.59 438.325 245.073 437.744 243.582L438.957 243.102C439.538 244.619 440.119 246.135 440.675 247.651L439.462 248.106ZM435.95 239.084C435.343 237.593 434.711 236.102 434.08 234.611L435.267 234.106C435.899 235.597 436.531 237.088 437.137 238.604L435.95 239.084ZM432.134 230.164C431.477 228.698 430.82 227.232 430.137 225.767L431.3 225.236C431.982 226.702 432.639 228.193 433.322 229.658L432.134 230.189V230.164ZM428.065 221.395C427.358 219.929 426.65 218.489 425.943 217.048L427.105 216.467C427.838 217.908 428.545 219.373 429.253 220.814L428.091 221.37L428.065 221.395ZM423.719 212.752C422.986 211.312 422.228 209.897 421.444 208.482L422.582 207.875C423.34 209.29 424.098 210.731 424.856 212.171L423.719 212.778V212.752ZM419.12 204.236C418.336 202.821 417.527 201.431 416.719 200.041L417.831 199.384C418.639 200.774 419.448 202.189 420.231 203.605L419.094 204.236H419.12ZM414.293 195.897C413.459 194.507 412.625 193.143 411.766 191.778L412.852 191.096C413.712 192.46 414.546 193.85 415.379 195.24L414.268 195.897H414.293ZM409.188 187.684C408.329 186.32 407.445 184.98 406.56 183.641L407.647 182.933C408.531 184.273 409.416 185.637 410.3 187.002L409.213 187.709L409.188 187.684ZM403.881 179.623C402.972 178.284 402.062 176.969 401.127 175.655L402.188 174.923C403.123 176.237 404.033 177.576 404.943 178.915L403.881 179.648V179.623ZM398.322 171.713C397.387 170.399 396.427 169.11 395.466 167.821L396.502 167.063C397.463 168.352 398.423 169.666 399.358 170.98L398.322 171.738V171.713ZM392.56 163.98C391.575 162.692 390.589 161.428 389.604 160.165L390.614 159.356C391.625 160.619 392.611 161.908 393.596 163.172L392.56 163.955V163.98ZM386.596 156.399C385.586 155.136 384.575 153.897 383.539 152.659L384.524 151.825C385.56 153.064 386.571 154.327 387.607 155.565L386.596 156.374V156.399ZM380.43 148.97C379.394 147.757 378.333 146.544 377.272 145.331L378.232 144.472C379.293 145.685 380.355 146.898 381.391 148.136L380.405 148.97H380.43ZM374.062 141.717C372.976 140.529 371.889 139.342 370.802 138.154L371.763 137.269C372.849 138.457 373.961 139.645 375.022 140.858L374.062 141.717ZM367.517 134.616C366.405 133.454 365.293 132.291 364.181 131.129L365.116 130.219C366.254 131.381 367.366 132.544 368.477 133.706L367.542 134.591L367.517 134.616ZM360.77 127.692C359.633 126.555 358.496 125.418 357.333 124.28L358.243 123.345C359.405 124.483 360.542 125.62 361.68 126.757L360.77 127.667V127.692ZM353.871 120.945C352.709 119.833 351.546 118.721 350.358 117.634L351.243 116.699C352.431 117.786 353.593 118.898 354.756 120.01L353.871 120.945ZM346.821 114.349C345.633 113.262 344.445 112.201 343.232 111.114L344.091 110.154C345.304 111.216 346.492 112.302 347.705 113.389L346.846 114.349H346.821ZM339.593 107.956C338.38 106.894 337.142 105.858 335.929 104.822L336.763 103.837C338.001 104.873 339.214 105.934 340.452 106.995L339.618 107.981L339.593 107.956ZM332.214 101.714C330.976 100.678 329.738 99.6669 328.474 98.6561L329.283 97.6453C330.546 98.6561 331.785 99.6922 333.048 100.703L332.214 101.689V101.714ZM324.709 95.6236C323.445 94.6381 322.182 93.6273 320.893 92.6417L321.676 91.6309C322.965 92.6164 324.229 93.602 325.492 94.6128L324.684 95.6236H324.709ZM317.052 89.7356C315.763 88.7753 314.474 87.815 313.16 86.8548L313.918 85.8187C315.232 86.779 316.521 87.7392 317.81 88.7248L317.027 89.7609L317.052 89.7356ZM309.243 83.9992C307.929 83.0642 306.615 82.1292 305.301 81.1942L306.034 80.1328C307.348 81.0678 308.687 82.0028 310.001 82.9378L309.243 83.9739V83.9992ZM301.334 78.4397C299.994 77.5299 298.68 76.6202 297.316 75.7357L298.023 74.6744C299.363 75.5841 300.702 76.4686 302.041 77.4036L301.308 78.4649L301.334 78.4397ZM293.272 73.0571C291.933 72.1726 290.568 71.2881 289.204 70.4289L289.911 69.3423C291.276 70.2015 292.641 71.086 293.98 71.9704L293.272 73.0571ZM285.11 67.8513C283.745 66.9921 282.356 66.1582 280.991 65.299L281.673 64.1871C283.063 65.021 284.428 65.8802 285.818 66.7394L285.135 67.8261L285.11 67.8513ZM276.847 62.8225C275.457 61.9886 274.067 61.1799 272.677 60.3713L273.334 59.2594C274.724 60.068 276.139 60.9019 277.529 61.7106L276.872 62.8225H276.847ZM268.457 57.9706C267.042 57.1619 265.626 56.3785 264.237 55.6204L264.868 54.4832C266.283 55.2666 267.699 56.05 269.114 56.8587L268.482 57.9958L268.457 57.9706ZM259.966 53.2703C258.551 52.5121 257.11 51.754 255.67 50.9959L256.276 49.8587C257.717 50.6168 259.157 51.375 260.572 52.1331L259.966 53.2703ZM251.374 48.7974C249.933 48.0645 248.493 47.3317 247.053 46.6241L247.634 45.4617C249.074 46.1692 250.515 46.9021 251.955 47.6349L251.374 48.7974ZM242.731 44.5014C241.291 43.7938 239.825 43.1115 238.385 42.4292L238.941 41.2668C240.406 41.9491 241.847 42.6566 243.313 43.3642L242.757 44.5266L242.731 44.5014ZM233.988 40.3823C232.522 39.7 231.056 39.0429 229.591 38.3859L230.121 37.1982C231.587 37.8552 233.078 38.5123 234.544 39.1946L234.013 40.357L233.988 40.3823ZM225.168 36.4401C223.703 35.8083 222.212 35.1766 220.721 34.5448L221.226 33.3571C222.717 33.9888 224.208 34.6206 225.674 35.2524L225.168 36.4401ZM216.248 32.7C214.757 32.0936 213.266 31.4871 211.775 30.9058L212.255 29.7181C213.746 30.3246 215.262 30.9058 216.753 31.5376L216.273 32.7253L216.248 32.7ZM207.277 29.1369C205.761 28.5557 204.27 27.9997 202.753 27.4185L203.208 26.2055C204.725 26.7615 206.241 27.3427 207.732 27.9239L207.277 29.1369ZM198.205 25.7759C196.688 25.22 195.172 24.6893 193.656 24.1586L194.086 22.9456C195.602 23.4763 197.118 24.007 198.66 24.5629L198.23 25.7759H198.205ZM189.082 22.5918C187.566 22.0864 186.024 21.581 184.483 21.0756L184.887 19.8374C186.429 20.3428 187.945 20.8482 189.486 21.3536L189.082 22.5666V22.5918ZM179.884 19.6099C178.342 19.1298 176.801 18.6496 175.259 18.1948L175.638 16.9565C177.18 17.4114 178.721 17.8915 180.263 18.3717L179.884 19.6099ZM170.635 16.8554C169.093 16.4006 167.526 15.971 165.985 15.5414L166.339 14.3031C167.905 14.7327 169.447 15.1623 170.988 15.6172L170.635 16.8554ZM161.335 14.2778C159.768 13.8735 158.227 13.4692 156.66 13.0649L156.963 11.8013C158.53 12.2057 160.097 12.5847 161.664 13.0143L161.335 14.2526V14.2778ZM151.96 11.9277C150.393 11.5486 148.826 11.1948 147.259 10.841L147.537 9.57752C149.104 9.93131 150.671 10.3104 152.263 10.6894L151.96 11.953V11.9277ZM142.534 9.77969C140.967 9.45117 139.375 9.09738 137.808 8.79414L138.061 7.53061C139.628 7.85913 141.22 8.18764 142.812 8.51616L142.534 9.77969ZM3.64702 8.1371L3.34375 6.87357C4.91052 6.49452 6.50259 6.14073 8.06936 5.81222L8.3473 7.07574C6.78053 7.40426 5.21379 7.75804 3.64702 8.1371ZM133.057 7.85912C131.465 7.55588 129.898 7.2779 128.306 6.97466L128.534 5.71113C130.126 5.98911 131.718 6.29235 133.31 6.5956L133.057 7.85912ZM123.556 6.19127C121.964 5.93856 120.372 5.68586 118.779 5.43316L118.982 4.14436C120.574 4.39707 122.166 4.64977 123.758 4.90248L123.556 6.166V6.19127ZM13.0729 6.11546L12.8202 4.85193C14.4122 4.54869 16.0043 4.24545 17.5963 3.96747L17.8237 5.231C16.2317 5.50897 14.6397 5.78694 13.0729 6.11546ZM114.003 4.72558C112.411 4.49815 110.819 4.29599 109.227 4.09382L109.379 2.80502C110.971 3.00718 112.588 3.20935 114.18 3.43678L114.003 4.72558ZM22.5999 4.44761L22.3977 3.18408C23.9898 2.93138 25.5818 2.70394 27.1991 2.50178L27.376 3.79058C25.784 4.01801 24.192 4.24544 22.5999 4.47287V4.44761ZM104.426 3.5126C102.834 3.33571 101.216 3.15881 99.6244 3.00719L99.7508 1.7184C101.343 1.87002 102.96 2.0469 104.577 2.2238L104.426 3.5126ZM32.1522 3.15881L32.0005 1.87001C33.5925 1.69312 35.2099 1.51622 36.8272 1.3646L36.9535 2.6534C35.3362 2.80503 33.7442 2.98192 32.1522 3.15881ZM94.823 2.55232C93.2057 2.42597 91.6137 2.27434 89.9964 2.17326L90.0974 0.884464C91.7147 1.01082 93.3068 1.13717 94.9241 1.26353L94.823 2.55232ZM41.7549 2.2238L41.6539 0.935006C43.2712 0.808654 44.8632 0.682303 46.4805 0.581221L46.5563 1.87001C44.939 1.97109 43.347 2.09745 41.7297 2.2238H41.7549ZM85.1697 1.84475C83.5524 1.74366 81.9603 1.66785 80.343 1.59204L80.3936 0.303244C82.0109 0.379055 83.6282 0.454863 85.2455 0.555945L85.1697 1.84475ZM51.4083 1.61731L51.3325 0.32851C52.9498 0.252698 54.5671 0.176892 56.1844 0.126351L56.235 1.41514C54.6176 1.46568 53.0256 1.51623 51.4083 1.61731ZM75.5416 1.41514C73.9243 1.3646 72.3323 1.33933 70.715 1.31406V0.0252663C72.3575 0.0252663 73.9748 0.0758096 75.5921 0.126351L75.5416 1.41514ZM61.0616 1.31406V0.0252663C62.6284 0.0252663 64.1952 0 65.7872 0L65.8883 1.28879H65.7872C64.1952 1.28879 62.6284 1.28879 61.0616 1.31406Z" fill="var(--fill-0, #1C2D28)"/>
<path id="Vector_2" d="M462.229 321.037L458.084 330.463L451.969 322.149L462.229 321.037Z" fill="var(--fill-0, #1C2D28)"/>
<path id="Vector_3" d="M1.26043 3.738L0 4.00684L1.75007 12.2121L3.0105 11.9433L1.26043 3.738Z" fill="var(--fill-0, #1C2D28)"/>
</g>
</svg>
