<svg preserveAspectRatio="none" width="100%" height="100%" overflow="visible" style="display: block;" viewBox="0 0 211.532 221.998" fill="none" xmlns="http://www.w3.org/2000/svg">
<g id="Freccia 1">
<path id="Vector" d="M4.86694 220.94L3.57813 220.839C3.70449 219.222 3.83084 217.604 4.00774 215.987L5.29653 216.113C5.14491 217.705 4.99329 219.323 4.86694 220.915V220.94ZM5.82721 211.337L4.53842 211.186C4.74058 209.568 4.96802 207.976 5.22072 206.384L6.50951 206.586C6.25681 208.178 6.02937 209.77 5.82721 211.363V211.337ZM7.2929 201.81L6.02938 201.583C6.30735 199.991 6.6106 198.399 6.93912 196.832L8.20264 197.085C7.87413 198.651 7.57088 200.244 7.2929 201.81ZM9.23873 192.384L7.97521 192.081C8.35427 190.514 8.73332 188.948 9.13765 187.381L10.3759 187.709C9.97158 189.276 9.59252 190.818 9.23873 192.384ZM11.6394 183.06L10.4012 182.706C10.8308 181.164 11.3109 179.597 11.7911 178.056L13.0293 178.435C12.5492 179.977 12.0943 181.493 11.6647 183.034L11.6394 183.06ZM14.495 173.886L13.282 173.482C13.7874 171.966 14.3434 170.424 14.8741 168.908L16.087 169.363C15.5311 170.879 15.0004 172.37 14.495 173.886ZM17.8054 164.865L16.5925 164.385C17.1737 162.894 17.7802 161.377 18.4119 159.912L19.5996 160.417C18.9931 161.883 18.3867 163.374 17.8054 164.865ZM21.4949 155.995L20.3072 155.464C20.9643 153.998 21.6466 152.508 22.3289 151.042L23.4913 151.598C22.809 153.063 22.1267 154.529 21.4949 155.995ZM25.614 147.251L24.4516 146.67C25.1844 145.23 25.9173 143.789 26.6501 142.349L27.7873 142.955C27.0292 144.396 26.2963 145.811 25.5888 147.251H25.614ZM30.0869 138.735L28.9497 138.103C29.7331 136.688 30.5165 135.273 31.3504 133.883L32.4623 134.54C31.6537 135.93 30.8703 137.32 30.0869 138.735ZM34.9389 130.396L33.8269 129.713C34.6609 128.324 35.5201 126.959 36.3793 125.594L37.4659 126.302C36.6067 127.667 35.7475 129.031 34.9136 130.396H34.9389ZM40.1446 122.259L39.0579 121.551C39.9424 120.212 40.8522 118.872 41.7872 117.533L42.8485 118.266C41.9388 119.58 41.029 120.919 40.1446 122.259ZM45.6283 114.324L44.5922 113.566C45.5525 112.252 46.4875 110.963 47.473 109.674L48.5091 110.457C47.5488 111.746 46.5886 113.035 45.6535 114.349L45.6283 114.324ZM51.4405 106.616L50.4297 105.808C51.4152 104.544 52.426 103.281 53.4621 102.017L54.473 102.826C53.4621 104.089 52.4513 105.327 51.4658 106.591L51.4405 106.616ZM57.556 99.1362L56.5704 98.3022C57.6065 97.064 58.6679 95.851 59.7292 94.638L60.6895 95.4972C59.6281 96.7102 58.5668 97.9232 57.5307 99.1615L57.556 99.1362ZM63.8989 91.8836L62.9386 91.0243C64.0252 89.8366 65.1118 88.6489 66.2237 87.4612L67.1588 88.3457C66.0469 89.5081 64.9602 90.6958 63.8736 91.8836H63.8989ZM70.5197 84.8836L69.5847 83.9739C70.7219 82.8114 71.8591 81.6743 72.9962 80.5371L73.906 81.4468C72.7688 82.584 71.6316 83.7212 70.4945 84.8583L70.5197 84.8836ZM77.3933 78.0858L76.5088 77.1508C77.6713 76.0389 78.859 74.927 80.0467 73.8404L80.9312 74.8007C79.7435 75.8873 78.581 76.9992 77.4186 78.1111L77.3933 78.0858ZM84.4943 71.5408L83.6351 70.5805C84.8481 69.4939 86.0611 68.4325 87.2741 67.3711L88.108 68.3567C86.895 69.4181 85.682 70.4794 84.4691 71.5408H84.4943ZM91.7975 65.2232L90.9636 64.2376C92.2018 63.2015 93.4401 62.1907 94.7036 61.1546L95.5123 62.1654C94.2488 63.1762 93.0105 64.2123 91.7722 65.2232H91.7975ZM99.3029 59.1582L98.5195 58.1474C99.783 57.1619 101.072 56.1763 102.361 55.1908L103.144 56.2269C101.855 57.1871 100.592 58.1727 99.3281 59.1582H99.3029ZM106.985 53.3207L106.227 52.2846C107.516 51.3244 108.83 50.3894 110.169 49.4544L110.902 50.5157C109.588 51.4507 108.274 52.3857 106.985 53.346V53.3207ZM114.869 47.736L114.137 46.6746C115.476 45.7648 116.815 44.8551 118.155 43.9706L118.862 45.0573C117.523 45.9417 116.184 46.8515 114.869 47.7612V47.736ZM122.906 42.4039L122.198 41.3172C123.563 40.4581 124.927 39.5736 126.292 38.7396L126.974 39.8263C125.609 40.6855 124.245 41.5447 122.88 42.4039H122.906ZM131.118 37.3245L130.461 36.2126C131.851 35.3787 133.241 34.57 134.631 33.7614L135.288 34.8733C133.898 35.6819 132.508 36.4906 131.118 37.3245ZM139.458 32.4978L138.826 31.3607C140.241 30.5773 141.631 29.7939 143.046 29.0358L143.653 30.1729C142.237 30.9311 140.822 31.7145 139.432 32.4978H139.458ZM147.949 27.9239L147.342 26.7867C148.783 26.0539 150.198 25.321 151.638 24.5882L152.219 25.7506C150.779 26.4582 149.364 27.191 147.923 27.9491L147.949 27.9239ZM156.541 23.6279L155.985 22.4654C157.425 21.7579 158.891 21.0756 160.356 20.3933L160.887 21.5557C159.421 22.238 157.981 22.9203 156.541 23.6279ZM165.259 19.5846L164.728 18.3969C166.194 17.7399 167.685 17.1081 169.151 16.4511L169.656 17.6388C168.19 18.2705 166.699 18.9276 165.259 19.5593V19.5846ZM174.104 15.7688L173.598 14.581C175.089 13.9745 176.58 13.3681 178.071 12.7616L178.551 13.9493C177.06 14.5305 175.569 15.137 174.078 15.7435L174.104 15.7688ZM183.049 12.2309L182.594 11.0179C184.111 10.462 185.602 9.88072 187.118 9.35004L187.548 10.563C186.031 11.119 184.54 11.6749 183.024 12.2309H183.049ZM192.121 8.97098L191.692 7.75801C193.208 7.22733 194.75 6.72191 196.266 6.2165L196.67 7.42948C195.154 7.93489 193.612 8.4403 192.096 8.97098H192.121ZM201.269 5.93853L200.89 4.70028C202.002 4.34649 203.114 4.01797 204.226 3.68945L204.605 4.9277C203.493 5.25622 202.381 5.61001 201.269 5.93853Z" fill="var(--fill-0, #1C2D28)"/>
<path id="Vector_2" d="M0.123302 219.912L0 221.195L8.35131 221.998L8.47461 220.715L0.123302 219.912Z" fill="var(--fill-0, #1C2D28)"/>
<path id="Vector_3" d="M204.558 9.83023L211.532 2.24907L201.5 0L204.558 9.83023Z" fill="var(--fill-0, #1C2D28)"/>
</g>
</svg>
