<svg preserveAspectRatio="none" width="100%" height="100%" overflow="visible" style="display: block;" viewBox="0 0 170.907 306.762" fill="none" xmlns="http://www.w3.org/2000/svg">
<path id="Vector" d="M122.497 306.762C84.97 306.762 38.7502 251.849 14.718 175.709C1.95637 135.251 -2.71864 94.8941 1.52681 62.0929C5.79752 29.1149 18.6097 7.63496 37.6131 1.64585C76.6308 -10.6609 129.85 47.3855 156.258 131.056C182.666 214.727 172.381 292.813 133.363 305.119C129.85 306.231 126.212 306.762 122.497 306.762ZM48.5552 1.24152C44.9416 1.24152 41.4037 1.7722 37.9669 2.83356C19.4689 8.67105 6.95994 29.7719 2.76504 62.2193C-1.48041 94.8688 3.19463 135.024 15.9057 175.305C39.7611 250.889 85.4502 305.473 122.37 305.499C125.984 305.499 129.522 304.968 132.959 303.906C171.319 291.802 181.2 214.424 155.02 131.435C131.19 55.8511 85.5007 1.24152 48.5552 1.24152Z" fill="var(--fill-0, #1C2D28)"/>
</svg>
