<svg preserveAspectRatio="none" width="100%" height="100%" overflow="visible" style="display: block;" viewBox="0 0 412.469 209.068" fill="none" xmlns="http://www.w3.org/2000/svg">
<path id="Vector" d="M141.605 209.068C66.3999 209.068 8.98532 185.794 0.949298 146.751C-9.89175 94.0112 73.3746 32.1743 186.561 8.90018C299.773 -14.374 400.678 9.58245 411.519 62.2967C422.36 115.036 339.094 176.873 225.907 200.147C196.518 206.187 167.962 209.043 141.605 209.043V209.068ZM271.116 1.21792C244.785 1.21792 216.229 4.07348 186.839 10.1384C74.3349 33.2862 -8.50187 94.4661 2.21282 146.498C12.9275 198.53 113.176 222.082 225.68 198.934C338.184 175.787 420.996 114.607 410.306 62.5747C402.397 24.1383 345.614 1.24317 271.142 1.24317L271.116 1.21792Z" fill="var(--fill-0, #1C2D28)"/>
</svg>
