<svg preserveAspectRatio="none" width="100%" height="100%" overflow="visible" style="display: block;" viewBox="0 0 566.52 567" fill="none" xmlns="http://www.w3.org/2000/svg">
<g id="Group">
<path id="Vector" d="M420.089 352.395C409.047 373.999 393.203 393.203 373.039 407.606H193.961C173.797 393.203 157.953 373.999 146.911 352.395H282.78L147.871 213.165C156.033 196.842 168.036 181.478 181.959 168.996L268.857 258.775L385.522 169.476C398.964 181.959 410.967 196.842 419.129 213.165L307.265 298.623L359.596 352.395H420.089Z" fill="var(--fill-0, #131F1B)"/>
<path id="Vector_2" d="M283.26 567C127.227 567 0 439.773 0 283.74C0 127.707 127.227 0 283.26 0C439.293 0 566.52 127.227 566.52 283.26C566.52 439.293 439.293 566.52 283.26 566.52V567ZM283.26 60.0127C160.354 60.0127 60.0127 160.354 60.0127 283.26C60.0127 406.166 160.354 506.507 283.26 506.507C406.166 506.507 506.507 406.166 506.507 283.26C506.507 160.354 406.646 60.0127 283.26 60.0127Z" fill="var(--fill-0, #131F1B)"/>
</g>
</svg>
