<svg width="256" height="48" viewBox="0 0 256 48" fill="none" xmlns="http://www.w3.org/2000/svg" role="img" aria-label="Seika Innovation">
  <path d="M4.05455 21.5499C2.81566 21.0487 1.85834 20.2692 1.12626 19.3225C0.394193 18.3202 0.0563132 17.2065 0 15.8701H4.73031C4.78663 16.761 5.12451 17.4849 5.68764 17.9861C6.25077 18.4873 7.03916 18.7657 8.05279 18.7657C9.06643 18.7657 9.91113 18.5429 10.4743 18.0418C11.0374 17.5406 11.3753 16.9281 11.3753 16.0928C11.3753 15.4246 11.15 14.9235 10.7558 14.478C10.3616 14.0882 9.85482 13.7541 9.23537 13.4757C8.61593 13.2529 7.82754 12.9745 6.75759 12.6961C5.34976 12.3063 4.16718 11.8608 3.26617 11.471C2.36516 11.0812 1.57677 10.4687 0.957325 9.63343C0.394193 8.79816 0.0563132 7.74016 0.0563132 6.34805C0.0563132 5.06731 0.394193 3.95362 1.06995 2.9513C1.74571 2.00466 2.64672 1.28076 3.8293 0.723918C5.01188 0.222758 6.3634 -0.0556641 7.88385 -0.0556641C10.1364 -0.0556641 11.9947 0.50118 13.4589 1.55919C14.923 2.61719 15.6551 4.17635 15.824 6.12531H10.9811C10.9811 5.40141 10.6432 4.7332 10.0238 4.28772C9.40431 3.78656 8.61593 3.56383 7.6586 3.56383C6.8139 3.56383 6.08183 3.78656 5.57501 4.23204C5.06819 4.67751 4.78663 5.29004 4.78663 6.12531C4.78663 6.68216 4.95557 7.18332 5.34976 7.57311C5.74395 7.9629 6.25077 8.297 6.8139 8.51974C7.37704 8.74248 8.22173 9.0209 9.29168 9.35501C10.6995 9.7448 11.8821 10.1903 12.7831 10.5801C13.6841 10.9699 14.4725 11.6381 15.1483 12.4733C15.824 13.3086 16.1056 14.4223 16.1056 15.7587C16.1056 16.9281 15.824 17.9861 15.2046 18.9884C14.5851 19.9907 13.6841 20.7703 12.5015 21.3829C11.319 21.9954 9.91113 22.2738 8.27805 22.2738C6.75759 22.2738 5.34976 21.9954 4.11087 21.4942L4.05455 21.5499Z" fill="#ECEFE5"/>
  <path d="M24.271 3.84213V9.2992H31.7044V12.7516H24.271V18.5428H32.6617V22.1066H19.8786V0.27832H32.6617V3.84213H24.271Z" fill="#ECEFE5"/>
  <path d="M41.0524 0.333984V22.1623H36.6036V0.333984H41.0524Z" fill="#ECEFE5"/>
  <path d="M57.89 22.1623L49.8372 12.4175V22.1623H45.3885V0.333984H49.8372V10.1344L57.89 0.333984H63.2398L54.117 11.1368L63.465 22.1623H57.89Z" fill="#ECEFE5"/>
  <path d="M79.9648 17.986H71.1799L69.7158 22.1623H65.0418L72.982 0.27832H78.1628L86.1029 22.1623H81.4289L79.9648 17.986ZM78.7259 14.4779L75.5161 5.34561L72.3062 14.4779H78.6696H78.7259Z" fill="#ECEFE5"/>
  <path d="M41.1087 25.9492V47.7775H36.6599V25.9492H41.1087Z" fill="#ECEFE5"/>
  <path d="M64.3097 47.7775H59.861L49.8372 32.7984V47.7775H45.3885V25.8936H49.8372L59.861 40.9284V25.8936H64.3097V47.7775Z" fill="#ECEFE5"/>
  <path d="M87.5671 47.7775H83.1184L73.0946 32.7984V47.7775H68.6458V25.8936H73.0946L83.1184 40.9284V25.8936H87.5671V47.7775Z" fill="#ECEFE5"/>
  <path d="M96.4646 46.5526C94.7189 45.606 93.3674 44.2695 92.3537 42.5433C91.3401 40.8171 90.8333 38.9238 90.8333 36.7521C90.8333 34.5805 91.3401 32.6872 92.3537 31.0166C93.3674 29.2904 94.7189 28.0097 96.4646 27.0074C98.2103 26.005 100.069 25.5596 102.152 25.5596C104.236 25.5596 106.15 26.0607 107.84 27.0074C109.529 27.954 110.937 29.2904 111.894 31.0166C112.908 32.7429 113.415 34.6361 113.415 36.7521C113.415 38.8682 112.908 40.8171 111.894 42.5433C110.881 44.2695 109.529 45.5503 107.784 46.5526C106.038 47.4992 104.179 48.0004 102.096 48.0004C100.012 48.0004 98.154 47.4992 96.4083 46.5526H96.4646ZM105.7 43.2115C106.714 42.599 107.502 41.7637 108.065 40.6501C108.628 39.5364 108.91 38.2556 108.91 36.8078C108.91 35.36 108.628 34.0793 108.065 32.9656C107.502 31.8519 106.714 31.0166 105.7 30.4598C104.686 29.903 103.504 29.5689 102.209 29.5689C100.913 29.5689 99.7308 29.8473 98.6608 30.4598C97.6472 31.0166 96.8588 31.9076 96.2956 32.9656C95.7325 34.0793 95.4509 35.36 95.4509 36.8078C95.4509 38.2556 95.7325 39.5364 96.2956 40.6501C96.8588 41.7637 97.6472 42.599 98.6608 43.2115C99.6744 43.8241 100.857 44.1025 102.209 44.1025C103.56 44.1025 104.686 43.8241 105.7 43.2115Z" fill="#ECEFE5"/>
  <path d="M136.56 25.9492L128.45 47.7775H123.101L114.992 25.9492H119.722L125.804 43.3228L131.829 25.9492H136.56Z" fill="#ECEFE5"/>
  <path d="M149.174 43.6569H140.389L138.925 47.8332H134.251L142.191 25.9492H147.372L155.312 47.8332H150.638L149.174 43.6569ZM147.935 40.1488L144.725 31.0165L141.515 40.1488H147.879H147.935Z" fill="#ECEFE5"/>
  <path d="M171.868 25.9492V29.4573H166.011V47.7775H161.563V29.4573H155.706V25.9492H171.924H171.868Z" fill="#ECEFE5"/>
  <path d="M179.527 25.9492V47.7775H175.078V25.9492H179.527Z" fill="#ECEFE5"/>
  <path d="M188.424 46.5526C186.678 45.606 185.327 44.2695 184.313 42.5433C183.3 40.8171 182.793 38.9238 182.793 36.7521C182.793 34.5805 183.3 32.6872 184.313 31.0166C185.327 29.2904 186.678 28.0097 188.424 27.0074C190.17 26.0607 192.028 25.5596 194.112 25.5596C196.195 25.5596 198.11 26.0607 199.799 27.0074C201.545 27.954 202.897 29.2904 203.854 31.0166C204.868 32.7429 205.374 34.6361 205.374 36.7521C205.374 38.8682 204.868 40.8171 203.854 42.5433C202.84 44.2695 201.489 45.5503 199.743 46.5526C197.997 47.5549 196.139 48.0004 194.055 48.0004C191.972 48.0004 190.114 47.4992 188.368 46.5526H188.424ZM197.659 43.2115C198.673 42.599 199.462 41.7637 200.025 40.6501C200.588 39.5364 200.869 38.2556 200.869 36.8078C200.869 35.36 200.588 34.0793 200.025 32.9656C199.462 31.8519 198.673 31.0166 197.659 30.4598C196.646 29.903 195.463 29.5689 194.168 29.5689C192.873 29.5689 191.69 29.8473 190.62 30.4598C189.607 31.0166 188.818 31.9076 188.255 32.9656C187.692 34.0793 187.41 35.36 187.41 36.8078C187.41 38.2556 187.692 39.5364 188.255 40.6501C188.818 41.7637 189.607 42.599 190.62 43.2115C191.634 43.8241 192.816 44.1025 194.168 44.1025C195.52 44.1025 196.646 43.8241 197.659 43.2115Z" fill="#ECEFE5"/>
  <path d="M227.562 47.7775H223.113L213.089 32.7984V47.7775H208.641V25.8936H213.089L223.113 40.9284V25.8936H227.562V47.7775Z" fill="#ECEFE5"/>
  <path d="M250.087 23.3884C249.637 24.2237 249.017 25.0032 248.172 25.5601H240.964C240.176 25.0032 239.5 24.2237 239.05 23.3884H244.512L239.106 17.8756C239.444 17.2074 239.894 16.5949 240.458 16.1494L243.949 19.7132L248.623 16.1494C249.186 16.6506 249.637 17.2074 249.974 17.8756L245.469 21.2724L247.553 23.3884H249.974H250.087Z" fill="#ECEFE5"/>
  <path d="M244.625 31.9077C238.374 31.9077 233.249 26.8404 233.249 20.6594C233.249 14.4784 238.374 9.41113 244.625 9.41113C250.875 9.41113 256 14.4784 256 20.6594C256 26.8404 250.875 31.9077 244.625 31.9077ZM244.625 11.8056C239.669 11.8056 235.671 15.7592 235.671 20.6594C235.671 25.5596 239.669 29.5132 244.625 29.5132C249.58 29.5132 253.579 25.5596 253.579 20.6594C253.579 15.7592 249.58 11.8056 244.625 11.8056Z" fill="#00A77D"/>
</svg>
