<svg width="160" height="30" viewBox="0 0 160 30" fill="none" xmlns="http://www.w3.org/2000/svg" role="img" aria-label="Seika Innovation">
  <path d="M2.5341 13.4687C1.75979 13.1555 1.16146 12.6682 0.703916 12.0766C0.24637 11.4501 0.0351958 10.7541 0 9.91879H2.95645C2.99164 10.4756 3.20282 10.9281 3.55477 11.2413C3.90673 11.5545 4.39947 11.7285 5.033 11.7285C5.66652 11.7285 6.19446 11.5893 6.54642 11.2761C6.89837 10.9629 7.10955 10.58 7.10955 10.058C7.10955 9.64037 6.96876 9.32715 6.72239 9.04873C6.47602 8.80511 6.15926 8.59629 5.77211 8.42228C5.38495 8.28306 4.89221 8.10905 4.22349 7.93504C3.3436 7.69142 2.60449 7.41299 2.04136 7.16937C1.47822 6.92576 0.985482 6.54292 0.598328 6.02088C0.24637 5.49884 0.0351958 4.83759 0.0351958 3.96752C0.0351958 3.16705 0.24637 2.471 0.66872 1.84455C1.09107 1.2529 1.6542 0.800465 2.39331 0.452438C3.13242 0.139212 3.97712 -0.0348015 4.92741 -0.0348015C6.33524 -0.0348015 7.4967 0.313226 8.41179 0.974479C9.32688 1.63573 9.78443 2.61021 9.89001 3.82831H6.86318C6.86318 3.37587 6.652 2.95824 6.26485 2.67982C5.8777 2.36659 5.38495 2.22738 4.78663 2.22738C4.25869 2.22738 3.80114 2.36659 3.48438 2.64501C3.16762 2.92344 2.99164 3.30627 2.99164 3.82831C2.99164 4.17634 3.09723 4.48956 3.3436 4.73318C3.58997 4.9768 3.90673 5.18562 4.25869 5.32483C4.61065 5.46404 5.13858 5.63805 5.8073 5.84687C6.6872 6.09049 7.42631 6.36891 7.98944 6.61253C8.55257 6.85615 9.04532 7.27378 9.46766 7.79583C9.89001 8.31787 10.066 9.01392 10.066 9.84919C10.066 10.58 9.89001 11.2413 9.50286 11.8678C9.11571 12.4942 8.55257 12.9814 7.81346 13.3643C7.07435 13.7471 6.19446 13.9211 5.17378 13.9211C4.22349 13.9211 3.3436 13.7471 2.56929 13.4339L2.5341 13.4687Z" fill="#ECEFE5"/>
  <path d="M15.1694 2.40139V5.81207H19.8152V7.96984H15.1694V11.5893H20.4135V13.8167H12.4241V0.174015H20.4135V2.40139H15.1694Z" fill="#ECEFE5"/>
  <path d="M25.6577 0.208817V13.8515H22.8773V0.208817H25.6577Z" fill="#ECEFE5"/>
  <path d="M36.1813 13.8515L31.1483 7.76102V13.8515H28.3678V0.208817H31.1483V6.33411L36.1813 0.208817H39.5249L33.8231 6.96056L39.6656 13.8515H36.1813Z" fill="#ECEFE5"/>
  <path d="M49.978 11.2413H44.4875L43.5724 13.8515H40.6511L45.6137 0.174015H48.8517L53.8143 13.8515H50.8931L49.978 11.2413ZM49.2037 9.04872L47.1975 3.34107L45.1914 9.04872H49.1685H49.2037Z" fill="#ECEFE5"/>
  <path d="M25.6929 16.2181V29.8608H22.9124V16.2181H25.6929Z" fill="#ECEFE5"/>
  <path d="M40.1936 29.8608H37.4131L31.1483 20.4988V29.8608H28.3678V16.1833H31.1483L37.4131 25.58V16.1833H40.1936V29.8608Z" fill="#ECEFE5"/>
  <path d="M54.7294 29.8608H51.949L45.6841 20.4988V29.8608H42.9036V16.1833H45.6841L51.949 25.58V16.1833H54.7294V29.8608Z" fill="#ECEFE5"/>
  <path d="M60.2904 29.0951C59.1993 28.5035 58.3546 27.6682 57.7211 26.5893C57.0875 25.5104 56.7708 24.3271 56.7708 22.9698C56.7708 21.6125 57.0875 20.4292 57.7211 19.3852C58.3546 18.3063 59.1993 17.5058 60.2904 16.8794C61.3814 16.2529 62.5429 15.9745 63.8451 15.9745C65.1474 15.9745 66.344 16.2877 67.3999 16.8794C68.4558 17.471 69.3357 18.3063 69.934 19.3852C70.5675 20.464 70.8843 21.6473 70.8843 22.9698C70.8843 24.2923 70.5675 25.5104 69.934 26.5893C69.3005 27.6682 68.4558 28.4687 67.3647 29.0951C66.2736 29.6868 65.1122 30 63.8099 30C62.5077 30 61.3462 29.6868 60.2552 29.0951H60.2904ZM66.0625 27.007C66.696 26.6241 67.1887 26.1021 67.5407 25.406C67.8927 24.71 68.0686 23.9095 68.0686 23.0046C68.0686 22.0998 67.8927 21.2993 67.5407 20.6032C67.1887 19.9072 66.696 19.3852 66.0625 19.0371C65.4289 18.6891 64.6898 18.4803 63.8803 18.4803C63.0708 18.4803 62.3317 18.6543 61.663 19.0371C61.0295 19.3852 60.5367 19.942 60.1848 20.6032C59.8328 21.2993 59.6568 22.0998 59.6568 23.0046C59.6568 23.9095 59.8328 24.71 60.1848 25.406C60.5367 26.1021 61.0295 26.6241 61.663 27.007C62.2965 27.3898 63.0356 27.5638 63.8803 27.5638C64.725 27.5638 65.4289 27.3898 66.0625 27.007Z" fill="#ECEFE5"/>
  <path d="M85.3497 16.2181L80.2816 29.8608H76.938L71.8698 16.2181H74.8262L78.6274 27.0766L82.3933 16.2181H85.3497Z" fill="#ECEFE5"/>
  <path d="M93.2336 27.2854H87.7431L86.828 29.8956H83.9067L88.8693 16.2181H92.1073L97.0699 29.8956H94.1487L93.2336 27.2854ZM92.4593 25.0928L90.4531 19.3852L88.447 25.0928H92.4241H92.4593Z" fill="#ECEFE5"/>
  <path d="M107.418 16.2181V18.4107H103.757V29.8608H100.977V18.4107H97.3163V16.2181H107.453H107.418Z" fill="#ECEFE5"/>
  <path d="M112.204 16.2181V29.8608H109.424V16.2181H112.204Z" fill="#ECEFE5"/>
  <path d="M117.765 29.0951C116.674 28.5035 115.829 27.6682 115.196 26.5893C114.562 25.5104 114.245 24.3271 114.245 22.9698C114.245 21.6125 114.562 20.4292 115.196 19.3852C115.829 18.3063 116.674 17.5058 117.765 16.8794C118.856 16.2877 120.018 15.9745 121.32 15.9745C122.622 15.9745 123.819 16.2877 124.875 16.8794C125.966 17.471 126.81 18.3063 127.409 19.3852C128.042 20.464 128.359 21.6473 128.359 22.9698C128.359 24.2923 128.042 25.5104 127.409 26.5893C126.775 27.6682 125.93 28.4687 124.839 29.0951C123.748 29.7216 122.587 30 121.285 30C119.982 30 118.821 29.6868 117.73 29.0951H117.765ZM123.537 27.007C124.171 26.6241 124.663 26.1021 125.015 25.406C125.367 24.71 125.543 23.9095 125.543 23.0046C125.543 22.0998 125.367 21.2993 125.015 20.6032C124.663 19.9072 124.171 19.3852 123.537 19.0371C122.904 18.6891 122.165 18.4803 121.355 18.4803C120.546 18.4803 119.806 18.6543 119.138 19.0371C118.504 19.3852 118.011 19.942 117.659 20.6032C117.308 21.2993 117.132 22.0998 117.132 23.0046C117.132 23.9095 117.308 24.71 117.659 25.406C118.011 26.1021 118.504 26.6241 119.138 27.007C119.771 27.3898 120.51 27.5638 121.355 27.5638C122.2 27.5638 122.904 27.3898 123.537 27.007Z" fill="#ECEFE5"/>
  <path d="M142.226 29.8608H139.446L133.181 20.4988V29.8608H130.4V16.1833H133.181L139.446 25.58V16.1833H142.226V29.8608Z" fill="#ECEFE5"/>
  <path d="M156.304 14.6172C156.023 15.1392 155.636 15.6265 155.108 15.9745H150.603C150.11 15.6265 149.688 15.1392 149.406 14.6172H152.82L149.441 11.1717C149.652 10.7541 149.934 10.3712 150.286 10.0928L152.468 12.3202L155.389 10.0928C155.741 10.406 156.023 10.7541 156.234 11.1717L153.418 13.2947L154.721 14.6172H156.234H156.304Z" fill="#ECEFE5"/>
  <path d="M152.89 19.942C148.984 19.942 145.781 16.7749 145.781 12.9118C145.781 9.04873 148.984 5.88167 152.89 5.88167C156.797 5.88167 160 9.04873 160 12.9118C160 16.7749 156.797 19.942 152.89 19.942ZM152.89 7.37819C149.793 7.37819 147.294 9.84919 147.294 12.9118C147.294 15.9745 149.793 18.4455 152.89 18.4455C155.988 18.4455 158.487 15.9745 158.487 12.9118C158.487 9.84919 155.988 7.37819 152.89 7.37819Z" fill="#00A77D"/>
</svg>
