<?xml version="1.0" encoding="UTF-8"?>
<svg id="Livello_2" data-name="Livello 2" xmlns="http://www.w3.org/2000/svg" viewBox="0 0 11.81 11.81">
  <defs>
    <style>
      .cls-1 {
        fill: #ecefe5;
      }

      .cls-2 {
        fill: #00a77d;
      }
    </style>
  </defs>
  <g id="Livello_1-2" data-name="Livello 1">
    <g>
      <path class="cls-1" d="M8.75,7.34c-.23.45-.56.85-.98,1.15h-3.73c-.42-.3-.75-.7-.98-1.15h2.83l-2.81-2.9c.17-.34.42-.66.71-.92l1.81,1.87,2.43-1.86c.28.26.53.57.7.91l-2.33,1.78,1.09,1.12h1.26Z"/>
      <path class="cls-2" d="M5.9,11.81c-3.25,0-5.9-2.65-5.9-5.9S2.65,0,5.9,0s5.9,2.65,5.9,5.9-2.65,5.9-5.9,5.9ZM5.9,1.25C3.34,1.25,1.25,3.34,1.25,5.9s2.09,4.65,4.65,4.65,4.65-2.09,4.65-4.65S8.47,1.25,5.9,1.25Z"/>
    </g>
  </g>
</svg>